<?xml version="1.0" encoding="iso-8859-1"?>
<!-- Generator: Adobe Illustrator 16.0.0, SVG Export Plug-In . SVG Version: 6.00 Build 0)  -->
<!DOCTYPE svg PUBLIC "-//W3C//DTD SVG 1.1//EN" "http://www.w3.org/Graphics/SVG/1.1/DTD/svg11.dtd">
<svg version="1.1" id="Capa_1" xmlns="http://www.w3.org/2000/svg" xmlns:xlink="http://www.w3.org/1999/xlink" x="0px" y="0px"
	 width="229.994px" height="229.994px" viewBox="0 0 229.994 229.994" style="enable-background:new 0 0 229.994 229.994;"
	 xml:space="preserve">
<g>
	<path d="M224.191,109.209c-2.302,0-4.251,1.364-5.188,3.297h-23.054c8.147-5.063,13.737-13.643,14.81-23.626
		c2.18-0.843,3.738-2.92,3.738-5.368c0-3.218-2.594-5.812-5.809-5.812c-3.203,0-5.797,2.594-5.797,5.812
		c0,2.137,1.205,3.921,2.923,4.932c-1.438,13.031-12.13,23.224-25.393,23.806c2.022-1.087,3.958-2.427,5.688-4.116
		c9.475-9.329,8.391-25.304,8.343-25.964c-0.098-1.209-1.048-2.201-2.266-2.293c0,0-0.98-0.094-2.618-0.094
		c-5.712,0-16.355,1.047-23.468,8.05c-0.463,0.441-0.877,0.922-1.291,1.422c1.863-3.057,2.983-6.61,2.983-10.431
		c0-9.186-7.459-16.663-16.647-16.663c-7.623,0-13.834,6.199-13.834,13.837c0,0.691,0.292,1.334,0.767,1.791
		c0.694,2.369,2.801,4.125,5.396,4.125c3.142,0,5.699-2.555,5.699-5.696c0-2.914-2.217-5.228-5.029-5.584
		c1.619-2.113,4.141-3.501,7.002-3.501c6.431,0,11.667,5.242,11.667,11.663c0,8.406-6.82,15.214-15.211,15.214
		c-10.826,0-19.644-8.808-19.644-19.634c0-13.886,11.302-25.169,25.197-25.169c1.376,0,2.484-1.124,2.484-2.49
		c0-1.364-1.121-2.488-2.484-2.488c-15.418,0-28.011,11.655-29.812,26.588h-16.831c-1.802-14.934-14.404-26.588-29.812-26.588
		c-1.376,0-2.494,1.129-2.494,2.488c0,1.385,1.117,2.49,2.494,2.49c13.892,0,25.191,11.295,25.191,25.169
		c0,10.827-8.817,19.634-19.647,19.634c-8.394,0-15.226-6.826-15.226-15.198c0.006-6.43,5.249-11.679,11.686-11.679
		c2.84,0,5.349,1.382,6.963,3.471c-2.898,0.268-5.188,2.64-5.188,5.587c0,3.157,2.545,5.711,5.699,5.711
		c2.54,0,4.616-1.689,5.35-3.982c0.593-0.451,1.004-1.148,1.004-1.946c0-7.626-6.205-13.837-13.828-13.837
		c-9.18,0-16.657,7.471-16.669,16.66c0,3.35,0.898,6.467,2.344,9.247c-0.073-0.08-0.137-0.162-0.216-0.235
		c-7.115-7.002-17.765-8.05-23.483-8.05c-1.623,0-2.6,0.088-2.6,0.088c-1.208,0.122-2.177,1.096-2.265,2.299
		c-0.049,0.667-1.126,16.635,8.345,25.964c1.726,1.702,3.672,3.042,5.699,4.116c-13.271-0.587-23.97-10.781-25.41-23.809
		c1.72-0.995,2.932-2.779,2.932-4.929c0-3.206-2.603-5.8-5.806-5.8c-3.206,0-5.806,2.594-5.806,5.8c0,2.466,1.559,4.542,3.735,5.379
		c1.072,9.996,6.671,18.575,14.809,23.614H10.991c-0.935-1.945-2.886-3.3-5.182-3.3C2.6,109.182,0,111.776,0,114.994
		c0,3.206,2.6,5.8,5.809,5.8c2.296,0,4.241-1.364,5.182-3.294h23.315c-8.138,5.061-13.737,13.634-14.809,23.619
		c-2.177,0.841-3.736,2.911-3.736,5.371c0,3.215,2.6,5.809,5.806,5.809c3.203,0,5.803-2.594,5.803-5.809
		c0-2.144-1.208-3.922-2.929-4.932c1.44-13.031,12.133-23.228,25.401-23.803c-2.024,1.074-3.964,2.417-5.69,4.109
		c-9.472,9.329-8.394,25.295-8.346,25.965c0.095,1.205,1.048,2.191,2.266,2.289c0,0,0.983,0.109,2.618,0.109
		c5.718,0,16.361-1.047,23.471-8.049c0.085-0.098,0.155-0.184,0.244-0.269c-1.456,2.776-2.36,5.907-2.36,9.268
		c0,9.194,7.472,16.673,16.657,16.673c7.624,0,13.828-6.211,13.828-13.848c0-0.693-0.292-1.339-0.767-1.79
		c-0.691-2.374-2.798-4.141-5.392-4.141c-3.145,0-5.699,2.558-5.699,5.712c0,2.923,2.213,5.213,5.018,5.578
		c-1.614,2.106-4.132,3.494-6.994,3.494c-6.436,0-11.673-5.236-11.673-11.66c0-8.396,6.826-15.205,15.214-15.205
		c10.83,0,19.646,8.799,19.646,19.626c0,13.901-11.298,25.166-25.191,25.166c-1.376,0-2.493,1.139-2.493,2.497
		c0,1.363,1.117,2.484,2.493,2.484c15.409,0,28.01-11.631,29.812-26.573h16.824c1.803,14.937,14.407,26.573,29.812,26.573
		c1.376,0,2.491-1.121,2.491-2.484c0-1.358-1.115-2.497-2.491-2.497c-13.889,0-25.185-11.289-25.185-25.166
		c0-10.827,8.817-19.626,19.638-19.626c8.396,0,15.229,6.832,15.229,15.205c-0.012,6.424-5.248,11.66-11.69,11.66
		c-2.838,0-5.341-1.375-6.96-3.458c2.898-0.269,5.188-2.643,5.188-5.596c0-3.161-2.545-5.7-5.699-5.7
		c-2.533,0-4.615,1.688-5.34,3.977c-0.604,0.457-1.011,1.157-1.011,1.937c0,7.642,6.211,13.841,13.834,13.841
		c9.183,0,16.647-7.459,16.672-16.66c0-3.812-1.132-7.361-2.983-10.4c0.408,0.457,0.816,0.932,1.261,1.389
		c7.118,7.015,17.774,8.062,23.485,8.062c1.632,0,2.606-0.097,2.606-0.097c1.206-0.116,2.18-1.09,2.266-2.29
		c0.048-0.663,1.12-16.647-8.349-25.977c-1.724-1.687-3.678-3.029-5.693-4.122c13.262,0.6,23.967,10.777,25.397,23.814
		c-1.711,1.005-2.923,2.783-2.923,4.933c0,3.215,2.595,5.809,5.797,5.809c3.209,0,5.815-2.594,5.815-5.809
		c0-2.466-1.559-4.549-3.745-5.371c-1.071-10.004-6.667-18.577-14.809-23.632h23.054c0.932,1.949,2.887,3.318,5.188,3.318
		c3.203,0,5.81-2.605,5.81-5.812C229.994,111.8,227.387,109.209,224.191,109.209z M169.595,91.386
		c6.04-5.943,15.893-6.616,19.911-6.622c-0.079,4.335-0.962,13.956-6.904,19.829c-6.028,5.937-15.881,6.616-19.899,6.622
		C162.763,106.883,163.627,97.274,169.595,91.386z M162.776,92.01c-4.78,7.562-5.128,16.867-5.066,20.377
		c-0.22,0.006-0.402,0.062-0.609,0.125h-5.395V98.614C156.102,97.698,159.925,95.283,162.776,92.01z M78.121,98.614v13.898H73.14
		c-0.195-0.063-0.393-0.119-0.606-0.125c0.058-3.285-0.25-11.709-4.253-18.992C70.975,95.959,74.343,97.829,78.121,98.614z
		 M40.733,84.764c4.034,0.012,13.88,0.667,19.912,6.622c5.94,5.849,6.826,15.484,6.902,19.823
		c-4.034-0.013-13.88-0.673-19.912-6.622C41.696,98.733,40.81,89.1,40.733,84.764z M60.645,138.623
		c-6.031,5.943-15.89,6.613-19.912,6.619c0.076-4.33,0.962-13.957,6.902-19.832c6.031-5.943,15.883-6.613,19.912-6.619
		C67.477,123.132,66.612,132.741,60.645,138.623z M68.275,136.625c4.01-7.282,4.317-15.71,4.265-19.001
		c0.213-0.006,0.405-0.062,0.606-0.125h4.981v13.901C74.343,132.18,70.963,134.056,68.275,136.625z M123.098,154.21h-16.383
		c-0.728-12.616-10.917-22.682-23.604-23.139V98.937c12.687-0.459,22.877-10.525,23.604-23.139h16.383
		c0.731,12.614,10.924,22.679,23.614,23.139v32.135C134.022,131.529,123.83,141.594,123.098,154.21z M151.706,131.401V117.5h5.395
		c0.195,0.063,0.384,0.119,0.609,0.125c-0.062,3.498,0.292,12.777,5.054,20.341C159.901,134.701,156.089,132.296,151.706,131.401z
		 M189.506,145.248c-4.03-0.012-13.877-0.67-19.911-6.625c-5.931-5.846-6.819-15.473-6.893-19.814
		c4.03,0.015,13.883,0.669,19.899,6.613C188.544,131.273,189.434,140.912,189.506,145.248z"/>
</g>
<g>
</g>
<g>
</g>
<g>
</g>
<g>
</g>
<g>
</g>
<g>
</g>
<g>
</g>
<g>
</g>
<g>
</g>
<g>
</g>
<g>
</g>
<g>
</g>
<g>
</g>
<g>
</g>
<g>
</g>
</svg>
