<?xml version='1.0' encoding='iso-8859-1'?>
<svg version="1.1" xmlns="http://www.w3.org/2000/svg" viewBox="0 0 470 470" xmlns:xlink="http://www.w3.org/1999/xlink" enable-background="new 0 0 470 470">
  <g>
    <path d="m462.5,22.5h-455c-4.143,0-7.5,3.358-7.5,7.5v410c0,4.142 3.357,7.5 7.5,7.5h455c4.143,0 7.5-3.358 7.5-7.5v-80c0-4.142-3.357-7.5-7.5-7.5s-7.5,3.358-7.5,7.5v72.5h-440v-335h440v232.5c0,4.142 3.357,7.5 7.5,7.5s7.5-3.358 7.5-7.5v-300c0-4.142-3.357-7.5-7.5-7.5zm-447.5,15h277.5v45h-277.5v-45zm292.5,45v-45h147.5v45h-147.5z"/>
    <path d="m381.5,52c-4.411,0-8,3.589-8,8s3.589,8 8,8 8-3.589 8-8-3.589-8-8-8z"/>
    <path d="m340.5,52c-4.411,0-8,3.589-8,8s3.589,8 8,8 8-3.589 8-8-3.589-8-8-8z"/>
    <path d="m422.5,52c-4.411,0-8,3.589-8,8s3.589,8 8,8 8-3.589 8-8-3.589-8-8-8z"/>
    <path d="m295.559,277.782c-2.93-2.929-7.678-2.929-10.607,0l-40.257,40.257c-2.938-1.408-6.225-2.199-9.695-2.199-12.406,0-22.5,10.093-22.5,22.5s10.094,22.5 22.5,22.5 22.5-10.093 22.5-22.5c0-3.469-0.79-6.757-2.199-9.694l40.257-40.258c2.929-2.928 2.929-7.677 0.001-10.606zm-60.559,68.059c-4.136,0-7.5-3.364-7.5-7.5s3.364-7.5 7.5-7.5 7.5,3.364 7.5,7.5-3.364,7.5-7.5,7.5z"/>
    <path d="m335.68,338.341c0,4.142 3.357,7.5 7.5,7.5h53.521c4.143,0 7.5-3.358 7.5-7.5 0-0.19-0.007-0.378-0.021-0.564-0.151-46.017-18.776-87.759-48.821-118.203-0.221-0.299-0.458-0.59-0.73-0.862-0.266-0.266-0.551-0.499-0.845-0.717-30.57-30.177-72.537-48.835-118.785-48.835-46.242,0-88.203,18.655-118.772,48.826-0.298,0.22-0.588,0.457-0.858,0.726-0.27,0.27-0.507,0.56-0.727,0.858-30.17,30.569-48.825,72.53-48.825,118.771 0,4.142 3.357,7.5 7.5,7.5h53.502c4.143,0 7.5-3.358 7.5-7.5 0-55.515 45.165-100.68 100.68-100.68s100.681,45.165 100.681,100.68zm-176.961-86.888l-27.255-27.255c25.656-23.294 59.168-38.082 96.036-39.856v38.568c-26.261,1.689-50.161,12.177-68.781,28.543zm83.781-67.111c36.868,1.775 70.38,16.562 96.036,39.856l-27.255,27.255c-18.619-16.366-42.52-26.855-68.781-28.544v-38.567zm107.939,146.499c-1.688-26.262-12.182-50.164-28.549-68.783l27.253-27.253c23.294,25.657 38.082,59.169 39.858,96.037h-38.562zm-230.878-.001h-38.563c1.776-36.868 16.564-70.38 39.858-96.037l27.253,27.253c-16.366,18.62-26.86,42.522-28.548,68.784z"/>
  </g>
</svg>
